<?xml version="1.0" standalone="no"?>
<!DOCTYPE svg PUBLIC "-//W3C//DTD SVG 20010904//EN"
 "http://www.w3.org/TR/2001/REC-SVG-20010904/DTD/svg10.dtd">
<svg version="1.0" xmlns="http://www.w3.org/2000/svg"
 width="700.000000pt" height="700.000000pt" viewBox="0 0 700.000000 700.000000"
 preserveAspectRatio="xMidYMid meet">
<metadata>
Created by potrace 1.11, written by Peter Selinger 2001-2013
</metadata>
<g transform="translate(0.000000,700.000000) scale(0.100000,-0.100000)"
fill="#000000" stroke="none">
<path d="M1978 6125 c-2 -1 -43 -5 -93 -9 -144 -10 -252 -31 -410 -78 -107
-32 -307 -125 -390 -181 -27 -18 -72 -49 -100 -67 -73 -49 -270 -251 -341
-350 -168 -232 -261 -446 -319 -731 -33 -159 -34 -412 -4 -594 62 -375 241
-720 524 -1010 33 -34 274 -289 325 -345 18 -19 94 -100 170 -180 75 -80 155
-164 176 -187 85 -90 314 -333 399 -422 50 -52 108 -114 130 -137 22 -23 92
-97 155 -165 63 -67 131 -139 150 -159 19 -20 89 -94 155 -165 66 -70 134
-142 151 -159 16 -17 100 -105 185 -196 84 -90 170 -181 189 -201 31 -32 233
-246 315 -334 17 -17 58 -61 92 -97 l63 -66 147 156 c128 135 223 236 323 342
14 14 89 94 166 176 78 82 156 165 174 184 18 19 96 102 174 184 77 82 155
164 171 181 17 18 91 97 166 176 75 79 151 160 169 179 18 19 90 96 160 170
70 74 147 155 170 180 23 25 99 105 169 179 69 74 142 151 161 171 19 21 101
107 181 191 133 141 208 220 318 338 22 24 64 70 93 103 29 33 58 66 63 72 17
18 125 174 125 180 0 3 12 22 26 43 97 143 205 458 230 668 3 28 8 61 10 75
11 66 4 316 -12 410 -3 19 -8 46 -10 60 -9 56 -38 169 -62 240 -195 580 -667
1004 -1267 1138 -134 30 -164 33 -350 37 -205 4 -291 -5 -475 -48 -194 -46
-484 -183 -620 -294 -129 -104 -226 -197 -354 -338 l-45 -50 -93 100 c-51 54
-120 126 -153 158 -65 64 -242 201 -303 234 -20 11 -53 29 -72 40 -134 75
-404 160 -560 177 -25 2 -67 7 -95 11 -50 6 -242 14 -247 10z"/>
</g>
</svg>
